<svg width="29" height="29" viewBox="0 0 29 29" fill="none" xmlns="http://www.w3.org/2000/svg">
<path d="M15.3444 23.7707C14.9103 23.5127 14.3689 23.5174 13.9393 23.7828L7.35084 27.8539C6.32965 28.485 5.05271 27.5753 5.31544 26.404L7.00663 18.8642C7.1165 18.3744 6.94671 17.864 6.56533 17.5376L0.69205 12.5109C-0.217713 11.7323 0.254967 10.2428 1.44722 10.1312L9.12426 9.4128C9.62418 9.36602 10.0573 9.04675 10.2499 8.58306L13.2041 1.4709C13.6626 0.367058 15.2214 0.353666 15.6988 1.44947L18.7748 8.50982C18.9753 8.97013 19.4139 9.2819 19.9145 9.32009L27.6028 9.90648C28.7968 9.99755 29.295 11.4787 28.3987 12.2729L22.6127 17.3997C22.237 17.7326 22.076 18.2459 22.1942 18.7337L24.0148 26.2438C24.2976 27.4104 23.0367 28.3418 22.0048 27.7286L15.3444 23.7707Z" fill="#FFC500"/>
</svg>
